<mxfile host="app.diagrams.net" modified="2023-05-29T19:38:13.357Z" agent="Mozilla/5.0 (Macintosh; Intel Mac OS X 10_15_7) AppleWebKit/537.36 (KHTML, like Gecko) Chrome/113.0.0.0 Safari/537.36" version="21.3.5" etag="77QgBkIOM7z4YUDrrZ5d" type="github">
  <diagram name="Страница 1" id="Ucmz6_unY7_S1XG1v_sY">
    <mxGraphModel>
      <root>
        <mxCell id="0" />
        <mxCell id="1" parent="0" />
      </root>
    </mxGraphModel>
  </diagram>
</mxfile>
